  0
SECTION
  2
HEADER
  9
$ACADVER
  1
AC1009
  9
$FILLMODE
 70
 0
  9
$SPLFRAME
 70
 1
  9
$EXTMIN
 10
0
 20
0
 30
0.0
  9
$EXTMAX
 10
41.6667
 20
41.6667
 30
0.0
  0
ENDSEC
  0
SECTION
  2
TABLES
  0
TABLE
  2
LAYER
 70
1
  0
LAYER
  2
0
 70
     0
 62
     7
  6
CONTINUOUS
  0
ENDTAB
  0
ENDSEC
  0
SECTION
  2
ENTITIES
  0
POLYLINE
  8
0
 62
     0
 66
     1
 10
0
 20
0
 30
0.0
 70
     1
 40
0
 41
0
  0
VERTEX
  8
0
 10
0.643935
 20
3.29742
 30
0.0
 40
0
 41
0
  0
VERTEX
  8
0
 10
0.646376
 20
3.29807
 30
0.0
 40
0
 41
0
  0
VERTEX
  8
0
 10
0.670628
 20
3.31213
 30
0.0
 40
0
 41
0
  0
VERTEX
  8
0
 10
0.673449
 20
3.31456
 30
0.0
 40
0
 41
0
  0
VERTEX
  8
0
 10
0.690213
 20
3.32937
 30
0.0
 40
0
 41
0
  0
VERTEX
  8
0
 10
0.74056
 20
3.37369
 30
0.0
 40
0
 41
0
  0
VERTEX
  8
0
 10
0.790365
 20
3.41764
 30
0.0
 40
0
 41
0
  0
VERTEX
  8
0
 10
0.825412
 20
3.44868
 30
0.0
 40
0
 41
0
  0
VERTEX
  8
0
 10
0.848361
 20
3.46924
 30
0.0
 40
0
 41
0
  0
VERTEX
  8
0
 10
0.861763
 20
3.48172
 30
0.0
 40
0
 41
0
  0
VERTEX
  8
0
 10
0.868272
 20
3.48833
 30
0.0
 40
0
 41
0
  0
VERTEX
  8
0
 10
0.870443
 20
3.4916
 30
0.0
 40
0
 41
0
  0
VERTEX
  8
0
 10
0.870822
 20
3.49322
 30
0.0
 40
0
 41
0
  0
VERTEX
  8
0
 10
0.870931
 20
3.49371
 30
0.0
 40
0
 41
0
  0
VERTEX
  8
0
 10
0.871474
 20
3.49685
 30
0.0
 40
0
 41
0
  0
VERTEX
  8
0
 10
0.864583
 20
3.51042
 30
0.0
 40
0
 41
0
  0
VERTEX
  8
0
 10
0.850424
 20
3.5159
 30
0.0
 40
0
 41
0
  0
VERTEX
  8
0
 10
0.847439
 20
3.51497
 30
0.0
 40
0
 41
0
  0
VERTEX
  8
0
 10
0.846951
 20
3.51486
 30
0.0
 40
0
 41
0
  0
VERTEX
  8
0
 10
0.845649
 20
3.51432
 30
0.0
 40
0
 41
0
  0
VERTEX
  8
0
 10
0.842557
 20
3.51226
 30
0.0
 40
0
 41
0
  0
VERTEX
  8
0
 10
0.836481
 20
3.50738
 30
0.0
 40
0
 41
0
  0
VERTEX
  8
0
 10
0.825683
 20
3.49815
 30
0.0
 40
0
 41
0
  0
VERTEX
  8
0
 10
0.808431
 20
3.48307
 30
0.0
 40
0
 41
0
  0
VERTEX
  8
0
 10
0.78304
 20
3.46072
 30
0.0
 40
0
 41
0
  0
VERTEX
  8
0
 10
0.747775
 20
3.42958
 30
0.0
 40
0
 41
0
  0
VERTEX
  8
0
 10
0.712619
 20
3.39854
 30
0.0
 40
0
 41
0
  0
VERTEX
  8
0
 10
0.700956
 20
3.38818
 30
0.0
 40
0
 41
0
  0
VERTEX
  8
0
 10
0.691081
 20
3.3795
 30
0.0
 40
0
 41
0
  0
VERTEX
  8
0
 10
0.661404
 20
3.35363
 30
0.0
 40
0
 41
0
  0
VERTEX
  8
0
 10
0.639649
 20
3.33658
 30
0.0
 40
0
 41
0
  0
VERTEX
  8
0
 10
0.628418
 20
3.33242
 30
0.0
 40
0
 41
0
  0
VERTEX
  8
0
 10
0.622233
 20
3.33512
 30
0.0
 40
0
 41
0
  0
VERTEX
  8
0
 10
0.620551
 20
3.33643
 30
0.0
 40
0
 41
0
  0
VERTEX
  8
0
 10
0.618326
 20
3.33817
 30
0.0
 40
0
 41
0
  0
VERTEX
  8
0
 10
0.60715
 20
3.34765
 30
0.0
 40
0
 41
0
  0
VERTEX
  8
0
 10
0.581814
 20
3.36963
 30
0.0
 40
0
 41
0
  0
VERTEX
  8
0
 10
0.546875
 20
3.40044
 30
0.0
 40
0
 41
0
  0
VERTEX
  8
0
 10
0.515192
 20
3.42854
 30
0.0
 40
0
 41
0
  0
VERTEX
  8
0
 10
0.504665
 20
3.43793
 30
0.0
 40
0
 41
0
  0
VERTEX
  8
0
 10
0.464572
 20
3.47364
 30
0.0
 40
0
 41
0
  0
VERTEX
  8
0
 10
0.464626
 20
3.59651
 30
0.0
 40
0
 41
0
  0
VERTEX
  8
0
 10
0.464626
 20
3.61518
 30
0.0
 40
0
 41
0
  0
VERTEX
  8
0
 10
0.464681
 20
3.67106
 30
0.0
 40
0
 41
0
  0
VERTEX
  8
0
 10
0.465278
 20
3.7099
 30
0.0
 40
0
 41
0
  0
VERTEX
  8
0
 10
0.466797
 20
3.72581
 30
0.0
 40
0
 41
0
  0
VERTEX
  8
0
 10
0.468804
 20
3.73019
 30
0.0
 40
0
 41
0
  0
VERTEX
  8
0
 10
0.469835
 20
3.73133
 30
0.0
 40
0
 41
0
  0
VERTEX
  8
0
 10
0.471192
 20
3.73296
 30
0.0
 40
0
 41
0
  0
VERTEX
  8
0
 10
0.480524
 20
3.73731
 30
0.0
 40
0
 41
0
  0
VERTEX
  8
0
 10
0.503147
 20
3.73822
 30
0.0
 40
0
 41
0
  0
VERTEX
  8
0
 10
0.510688
 20
3.73812
 30
0.0
 40
0
 41
0
  0
VERTEX
  8
0
 10
0.5389
 20
3.73779
 30
0.0
 40
0
 41
0
  0
VERTEX
  8
0
 10
0.539497
 20
3.63271
 30
0.0
 40
0
 41
0
  0
VERTEX
  8
0
 10
0.539551
 20
3.61589
 30
0.0
 40
0
 41
0
  0
VERTEX
  8
0
 10
0.539876
 20
3.56532
 30
0.0
 40
0
 41
0
  0
VERTEX
  8
0
 10
0.540907
 20
3.53299
 30
0.0
 40
0
 41
0
  0
VERTEX
  8
0
 10
0.543837
 20
3.52192
 30
0.0
 40
0
 41
0
  0
VERTEX
  8
0
 10
0.54834
 20
3.51932
 30
0.0
 40
0
 41
0
  0
VERTEX
  8
0
 10
0.549914
 20
3.5185
 30
0.0
 40
0
 41
0
  0
VERTEX
  8
0
 10
0.555067
 20
3.5159
 30
0.0
 40
0
 41
0
  0
VERTEX
  8
0
 10
0.632813
 20
3.51622
 30
0.0
 40
0
 41
0
  0
VERTEX
  8
0
 10
0.710613
 20
3.5165
 30
0.0
 40
0
 41
0
  0
VERTEX
  8
0
 10
0.714844
 20
3.51915
 30
0.0
 40
0
 41
0
  0
VERTEX
  8
0
 10
0.716254
 20
3.52007
 30
0.0
 40
0
 41
0
  0
VERTEX
  8
0
 10
0.720215
 20
3.52339
 30
0.0
 40
0
 41
0
  0
VERTEX
  8
0
 10
0.722874
 20
3.53364
 30
0.0
 40
0
 41
0
  0
VERTEX
  8
0
 10
0.723687
 20
3.5594
 30
0.0
 40
0
 41
0
  0
VERTEX
  8
0
 10
0.723633
 20
3.59754
 30
0.0
 40
0
 41
0
  0
VERTEX
  8
0
 10
0.723579
 20
3.61019
 30
0.0
 40
0
 41
0
  0
VERTEX
  8
0
 10
0.723525
 20
3.62147
 30
0.0
 40
0
 41
0
  0
VERTEX
  8
0
 10
0.723361
 20
3.65528
 30
0.0
 40
0
 41
0
  0
VERTEX
  8
0
 10
0.722982
 20
3.67899
 30
0.0
 40
0
 41
0
  0
VERTEX
  8
0
 10
0.722222
 20
3.68869
 30
0.0
 40
0
 41
0
  0
VERTEX
  8
0
 10
0.721354
 20
3.69125
 30
0.0
 40
0
 41
0
  0
VERTEX
  8
0
 10
0.720865
 20
3.69189
 30
0.0
 40
0
 41
0
  0
VERTEX
  8
0
 10
0.718967
 20
3.69444
 30
0.0
 40
0
 41
0
  0
VERTEX
  8
0
 10
0.705946
 20
3.70014
 30
0.0
 40
0
 41
0
  0
VERTEX
  8
0
 10
0.692492
 20
3.69635
 30
0.0
 40
0
 41
0
  0
VERTEX
  8
0
 10
0.690429
 20
3.69407
 30
0.0
 40
0
 41
0
  0
VERTEX
  8
0
 10
0.687554
 20
3.69092
 30
0.0
 40
0
 41
0
  0
VERTEX
  8
0
 10
0.687229
 20
3.62185
 30
0.0
 40
0
 41
0
  0
VERTEX
  8
0
 10
0.686957
 20
3.55285
 30
0.0
 40
0
 41
0
  0
VERTEX
  8
0
 10
0.576389
 20
3.55285
 30
0.0
 40
0
 41
0
  0
VERTEX
  8
0
 10
0.576389
 20
3.73839
 30
0.0
 40
0
 41
0
  0
VERTEX
  8
0
 10
0.67806
 20
3.73839
 30
0.0
 40
0
 41
0
  0
VERTEX
  8
0
 10
0.693739
 20
3.73839
 30
0.0
 40
0
 41
0
  0
VERTEX
  8
0
 10
0.740831
 20
3.73833
 30
0.0
 40
0
 41
0
  0
VERTEX
  8
0
 10
0.773383
 20
3.73768
 30
0.0
 40
0
 41
0
  0
VERTEX
  8
0
 10
0.786621
 20
3.73589
 30
0.0
 40
0
 41
0
  0
VERTEX
  8
0
 10
0.790528
 20
3.7334
 30
0.0
 40
0
 41
0
  0
VERTEX
  8
0
 10
0.791558
 20
3.73232
 30
0.0
 40
0
 41
0
  0
VERTEX
  8
0
 10
0.792535
 20
3.73128
 30
0.0
 40
0
 41
0
  0
VERTEX
  8
0
 10
0.795085
 20
3.72754
 30
0.0
 40
0
 41
0
  0
VERTEX
  8
0
 10
0.796875
 20
3.71669
 30
0.0
 40
0
 41
0
  0
VERTEX
  8
0
 10
0.797526
 20
3.69049
 30
0.0
 40
0
 41
0
  0
VERTEX
  8
0
 10
0.797635
 20
3.6524
 30
0.0
 40
0
 41
0
  0
VERTEX
  8
0
 10
0.797635
 20
3.63971
 30
0.0
 40
0
 41
0
  0
VERTEX
  8
0
 10
0.797635
 20
3.62679
 30
0.0
 40
0
 41
0
  0
VERTEX
  8
0
 10
0.797689
 20
3.588
 30
0.0
 40
0
 41
0
  0
VERTEX
  8
0
 10
0.79834
 20
3.56168
 30
0.0
 40
0
 41
0
  0
VERTEX
  8
0
 10
0.800401
 20
3.55111
 30
0.0
 40
0
 41
0
  0
VERTEX
  8
0
 10
0.803331
 20
3.54769
 30
0.0
 40
0
 41
0
  0
VERTEX
  8
0
 10
0.804471
 20
3.54671
 30
0.0
 40
0
 41
0
  0
VERTEX
  8
0
 10
0.806369
 20
3.54514
 30
0.0
 40
0
 41
0
  0
VERTEX
  8
0
 10
0.819769
 20
3.54411
 30
0.0
 40
0
 41
0
  0
VERTEX
  8
0
 10
0.831489
 20
3.55094
 30
0.0
 40
0
 41
0
  0
VERTEX
  8
0
 10
0.832628
 20
3.55322
 30
0.0
 40
0
 41
0
  0
VERTEX
  8
0
 10
0.833279
 20
3.55469
 30
0.0
 40
0
 41
0
  0
VERTEX
  8
0
 10
0.833496
 20
3.56218
 30
0.0
 40
0
 41
0
  0
VERTEX
  8
0
 10
0.834147
 20
3.58214
 30
0.0
 40
0
 41
0
  0
VERTEX
  8
0
 10
0.834526
 20
3.6096
 30
0.0
 40
0
 41
0
  0
VERTEX
  8
0
 10
0.83469
 20
3.64085
 30
0.0
 40
0
 41
0
  0
VERTEX
  8
0
 10
0.834581
 20
3.67236
 30
0.0
 40
0
 41
0
  0
VERTEX
  8
0
 10
0.834201
 20
3.70047
 30
0.0
 40
0
 41
0
  0
VERTEX
  8
0
 10
0.833604
 20
3.72157
 30
0.0
 40
0
 41
0
  0
VERTEX
  8
0
 10
0.833333
 20
3.72954
 30
0.0
 40
0
 41
0
  0
VERTEX
  8
0
 10
0.832736
 20
3.73199
 30
0.0
 40
0
 41
0
  0
VERTEX
  8
0
 10
0.831326
 20
3.73731
 30
0.0
 40
0
 41
0
  0
VERTEX
  8
0
 10
0.815918
 20
3.75965
 30
0.0
 40
0
 41
0
  0
VERTEX
  8
0
 10
0.792535
 20
3.77317
 30
0.0
 40
0
 41
0
  0
VERTEX
  8
0
 10
0.787218
 20
3.77408
 30
0.0
 40
0
 41
0
  0
VERTEX
  8
0
 10
0.785861
 20
3.77431
 30
0.0
 40
0
 41
0
  0
VERTEX
  8
0
 10
0.775119
 20
3.77468
 30
0.0
 40
0
 41
0
  0
VERTEX
  8
0
 10
0.745551
 20
3.77501
 30
0.0
 40
0
 41
0
  0
VERTEX
  8
0
 10
0.696615
 20
3.77512
 30
0.0
 40
0
 41
0
  0
VERTEX
  8
0
 10
0.643989
 20
3.77507
 30
0.0
 40
0
 41
0
  0
VERTEX
  8
0
 10
0.626519
 20
3.77501
 30
0.0
 40
0
 41
0
  0
VERTEX
  8
0
 10
0.473253
 20
3.77468
 30
0.0
 40
0
 41
0
  0
VERTEX
  8
0
 10
0.466635
 20
3.77214
 30
0.0
 40
0
 41
0
  0
VERTEX
  8
0
 10
0.463053
 20
3.77083
 30
0.0
 40
0
 41
0
  0
VERTEX
  8
0
 10
0.447592
 20
3.76074
 30
0.0
 40
0
 41
0
  0
VERTEX
  8
0
 10
0.436035
 20
3.74696
 30
0.0
 40
0
 41
0
  0
VERTEX
  8
0
 10
0.434407
 20
3.74371
 30
0.0
 40
0
 41
0
  0
VERTEX
  8
0
 10
0.433268
 20
3.74149
 30
0.0
 40
0
 41
0
  0
VERTEX
  8
0
 10
0.430501
 20
3.73438
 30
0.0
 40
0
 41
0
  0
VERTEX
  8
0
 10
0.428549
 20
3.71799
 30
0.0
 40
0
 41
0
  0
VERTEX
  8
0
 10
0.427843
 20
3.68207
 30
0.0
 40
0
 41
0
  0
VERTEX
  8
0
 10
0.427735
 20
3.63113
 30
0.0
 40
0
 41
0
  0
VERTEX
  8
0
 10
0.427735
 20
3.6141
 30
0.0
 40
0
 41
0
  0
VERTEX
  8
0
 10
0.427735
 20
3.50646
 30
0.0
 40
0
 41
0
  0
VERTEX
  8
0
 10
0.423557
 20
3.51014
 30
0.0
 40
0
 41
0
  0
VERTEX
  8
0
 10
0.421386
 20
3.51204
 30
0.0
 40
0
 41
0
  0
VERTEX
  8
0
 10
0.412978
 20
3.51551
 30
0.0
 40
0
 41
0
  0
VERTEX
  8
0
 10
0.402778
 20
3.51454
 30
0.0
 40
0
 41
0
  0
VERTEX
  8
0
 10
0.395019
 20
3.50819
 30
0.0
 40
0
 41
0
  0
VERTEX
  8
0
 10
0.391982
 20
3.50006
 30
0.0
 40
0
 41
0
  0
VERTEX
  8
0
 10
0.391982
 20
3.49729
 30
0.0
 40
0
 41
0
  0
VERTEX
  8
0
 10
0.391982
 20
3.49576
 30
0.0
 40
0
 41
0
  0
VERTEX
  8
0
 10
0.393337
 20
3.49115
 30
0.0
 40
0
 41
0
  0
VERTEX
  8
0
 10
0.400717
 20
3.48199
 30
0.0
 40
0
 41
0
  0
VERTEX
  8
0
 10
0.418837
 20
3.46496
 30
0.0
 40
0
 41
0
  0
VERTEX
  8
0
 10
0.444011
 20
3.44254
 30
0.0
 40
0
 41
0
  0
VERTEX
  8
0
 10
0.452474
 20
3.43511
 30
0.0
 40
0
 41
0
  0
VERTEX
  8
0
 10
0.458604
 20
3.42974
 30
0.0
 40
0
 41
0
  0
VERTEX
  8
0
 10
0.477051
 20
3.41347
 30
0.0
 40
0
 41
0
  0
VERTEX
  8
0
 10
0.503039
 20
3.39051
 30
0.0
 40
0
 41
0
  0
VERTEX
  8
0
 10
0.527399
 20
3.36903
 30
0.0
 40
0
 41
0
  0
VERTEX
  8
0
 10
0.542101
 20
3.35607
 30
0.0
 40
0
 41
0
  0
VERTEX
  8
0
 10
0.546983
 20
3.35172
 30
0.0
 40
0
 41
0
  0
VERTEX
  8
0
 10
0.552354
 20
3.347
 30
0.0
 40
0
 41
0
  0
VERTEX
  8
0
 10
0.57666
 20
3.32557
 30
0.0
 40
0
 41
0
  0
VERTEX
  8
0
 10
0.592122
 20
3.31201
 30
0.0
 40
0
 41
0
  0
VERTEX
  8
0
 10
0.593099
 20
3.31119
 30
0.0
 40
0
 41
0
  0
VERTEX
  8
0
 10
0.596897
 20
3.30794
 30
0.0
 40
0
 41
0
  0
VERTEX
  8
0
 10
0.617676
 20
3.29779
 30
0.0
 40
0
 41
0
  0
VERTEX
  8
0
 10
0.63954
 20
3.29639
 30
0.0
 40
0
 41
0
  0
VERTEX
  8
0
 10
0.643935
 20
3.29742
 30
0.0
 40
0
 41
0
  0
SEQEND
 8
0
  0
ENDSEC
  0
EOF
