  0
SECTION
  2
HEADER
  9
$ACADVER
  1
AC1009
  9
$FILLMODE
 70
 0
  9
$SPLFRAME
 70
 1
  9
$EXTMIN
 10
0
 20
0
 30
0.0
  9
$EXTMAX
 10
41.6667
 20
41.6667
 30
0.0
  0
ENDSEC
  0
SECTION
  2
TABLES
  0
TABLE
  2
LAYER
 70
1
  0
LAYER
  2
0
 70
     0
 62
     7
  6
CONTINUOUS
  0
ENDTAB
  0
ENDSEC
  0
SECTION
  2
ENTITIES
  0
POLYLINE
  8
0
 62
     0
 66
     1
 10
0
 20
0
 30
0.0
 70
     1
 40
0
 41
0
  0
VERTEX
  8
0
 10
0.25
 20
0.15625
 30
0.0
 40
0
 41
0
  0
VERTEX
  8
0
 10
0.258083
 20
0.15625
 30
0.0
 40
0
 41
0
  0
VERTEX
  8
0
 10
0.282389
 20
0.162815
 30
0.0
 40
0
 41
0
  0
VERTEX
  8
0
 10
0.308919
 20
0.180664
 30
0.0
 40
0
 41
0
  0
VERTEX
  8
0
 10
0.326768
 20
0.207194
 30
0.0
 40
0
 41
0
  0
VERTEX
  8
0
 10
0.333333
 20
0.2315
 30
0.0
 40
0
 41
0
  0
VERTEX
  8
0
 10
0.333333
 20
0.239583
 30
0.0
 40
0
 41
0
  0
VERTEX
  8
0
 10
0.333333
 20
0.303874
 30
0.0
 40
0
 41
0
  0
VERTEX
  8
0
 10
0.420953
 20
0.391439
 30
0.0
 40
0
 41
0
  0
VERTEX
  8
0
 10
0.423665
 20
0.394206
 30
0.0
 40
0
 41
0
  0
VERTEX
  8
0
 10
0.427354
 20
0.407172
 30
0.0
 40
0
 41
0
  0
VERTEX
  8
0
 10
0.420899
 20
0.420953
 30
0.0
 40
0
 41
0
  0
VERTEX
  8
0
 10
0.407118
 20
0.427408
 30
0.0
 40
0
 41
0
  0
VERTEX
  8
0
 10
0.394206
 20
0.423719
 30
0.0
 40
0
 41
0
  0
VERTEX
  8
0
 10
0.391439
 20
0.420953
 30
0.0
 40
0
 41
0
  0
VERTEX
  8
0
 10
0.333333
 20
0.362793
 30
0.0
 40
0
 41
0
  0
VERTEX
  8
0
 10
0.333333
 20
0.40625
 30
0.0
 40
0
 41
0
  0
VERTEX
  8
0
 10
0.333333
 20
0.414387
 30
0.0
 40
0
 41
0
  0
VERTEX
  8
0
 10
0.326768
 20
0.438693
 30
0.0
 40
0
 41
0
  0
VERTEX
  8
0
 10
0.308919
 20
0.465169
 30
0.0
 40
0
 41
0
  0
VERTEX
  8
0
 10
0.282389
 20
0.483074
 30
0.0
 40
0
 41
0
  0
VERTEX
  8
0
 10
0.258083
 20
0.489583
 30
0.0
 40
0
 41
0
  0
VERTEX
  8
0
 10
0.25
 20
0.489583
 30
0.0
 40
0
 41
0
  0
VERTEX
  8
0
 10
0.241863
 20
0.489583
 30
0.0
 40
0
 41
0
  0
VERTEX
  8
0
 10
0.217557
 20
0.483074
 30
0.0
 40
0
 41
0
  0
VERTEX
  8
0
 10
0.191081
 20
0.465169
 30
0.0
 40
0
 41
0
  0
VERTEX
  8
0
 10
0.173178
 20
0.438693
 30
0.0
 40
0
 41
0
  0
VERTEX
  8
0
 10
0.166667
 20
0.414387
 30
0.0
 40
0
 41
0
  0
VERTEX
  8
0
 10
0.166667
 20
0.40625
 30
0.0
 40
0
 41
0
  0
VERTEX
  8
0
 10
0.166667
 20
0.239583
 30
0.0
 40
0
 41
0
  0
VERTEX
  8
0
 10
0.166667
 20
0.23074
 30
0.0
 40
0
 41
0
  0
VERTEX
  8
0
 10
0.17334
 20
0.206922
 30
0.0
 40
0
 41
0
  0
VERTEX
  8
0
 10
0.174696
 20
0.204156
 30
0.0
 40
0
 41
0
  0
VERTEX
  8
0
 10
0.159179
 20
0.188639
 30
0.0
 40
0
 41
0
  0
VERTEX
  8
0
 10
0.156956
 20
0.192546
 30
0.0
 40
0
 41
0
  0
VERTEX
  8
0
 10
0.145833
 20
0.227865
 30
0.0
 40
0
 41
0
  0
VERTEX
  8
0
 10
0.145833
 20
0.239583
 30
0.0
 40
0
 41
0
  0
VERTEX
  8
0
 10
0.145833
 20
0.24349
 30
0.0
 40
0
 41
0
  0
VERTEX
  8
0
 10
0.139324
 20
0.255208
 30
0.0
 40
0
 41
0
  0
VERTEX
  8
0
 10
0.125
 20
0.260417
 30
0.0
 40
0
 41
0
  0
VERTEX
  8
0
 10
0.110677
 20
0.255208
 30
0.0
 40
0
 41
0
  0
VERTEX
  8
0
 10
0.104167
 20
0.24349
 30
0.0
 40
0
 41
0
  0
VERTEX
  8
0
 10
0.104167
 20
0.239583
 30
0.0
 40
0
 41
0
  0
VERTEX
  8
0
 10
0.104167
 20
0.229004
 30
0.0
 40
0
 41
0
  0
VERTEX
  8
0
 10
0.11046
 20
0.197157
 30
0.0
 40
0
 41
0
  0
VERTEX
  8
0
 10
0.124892
 20
0.164442
 30
0.0
 40
0
 41
0
  0
VERTEX
  8
0
 10
0.128961
 20
0.158421
 30
0.0
 40
0
 41
0
  0
VERTEX
  8
0
 10
0.0790474
 20
0.108453
 30
0.0
 40
0
 41
0
  0
VERTEX
  8
0
 10
0.0762804
 20
0.105686
 30
0.0
 40
0
 41
0
  0
VERTEX
  8
0
 10
0.0725911
 20
0.0927735
 30
0.0
 40
0
 41
0
  0
VERTEX
  8
0
 10
0.0790474
 20
0.0789931
 30
0.0
 40
0
 41
0
  0
VERTEX
  8
0
 10
0.0928276
 20
0.0725369
 30
0.0
 40
0
 41
0
  0
VERTEX
  8
0
 10
0.105794
 20
0.0762261
 30
0.0
 40
0
 41
0
  0
VERTEX
  8
0
 10
0.108561
 20
0.0789387
 30
0.0
 40
0
 41
0
  0
VERTEX
  8
0
 10
0.156956
 20
0.127387
 30
0.0
 40
0
 41
0
  0
VERTEX
  8
0
 10
0.16211
 20
0.123155
 30
0.0
 40
0
 41
0
  0
VERTEX
  8
0
 10
0.190864
 20
0.106445
 30
0.0
 40
0
 41
0
  0
VERTEX
  8
0
 10
0.222493
 20
0.0964085
 30
0.0
 40
0
 41
0
  0
VERTEX
  8
0
 10
0.229167
 20
0.0954318
 30
0.0
 40
0
 41
0
  0
VERTEX
  8
0
 10
0.229167
 20
0.0520833
 30
0.0
 40
0
 41
0
  0
VERTEX
  8
0
 10
0.21875
 20
0.0520833
 30
0.0
 40
0
 41
0
  0
VERTEX
  8
0
 10
0.214844
 20
0.0520833
 30
0.0
 40
0
 41
0
  0
VERTEX
  8
0
 10
0.203125
 20
0.0455729
 30
0.0
 40
0
 41
0
  0
VERTEX
  8
0
 10
0.197917
 20
0.03125
 30
0.0
 40
0
 41
0
  0
VERTEX
  8
0
 10
0.203125
 20
0.0169271
 30
0.0
 40
0
 41
0
  0
VERTEX
  8
0
 10
0.214844
 20
0.0104167
 30
0.0
 40
0
 41
0
  0
VERTEX
  8
0
 10
0.21875
 20
0.0104167
 30
0.0
 40
0
 41
0
  0
VERTEX
  8
0
 10
0.28125
 20
0.0104167
 30
0.0
 40
0
 41
0
  0
VERTEX
  8
0
 10
0.285157
 20
0.0104167
 30
0.0
 40
0
 41
0
  0
VERTEX
  8
0
 10
0.296875
 20
0.0169271
 30
0.0
 40
0
 41
0
  0
VERTEX
  8
0
 10
0.302083
 20
0.03125
 30
0.0
 40
0
 41
0
  0
VERTEX
  8
0
 10
0.296875
 20
0.0455729
 30
0.0
 40
0
 41
0
  0
VERTEX
  8
0
 10
0.285157
 20
0.0520833
 30
0.0
 40
0
 41
0
  0
VERTEX
  8
0
 10
0.28125
 20
0.0520833
 30
0.0
 40
0
 41
0
  0
VERTEX
  8
0
 10
0.270833
 20
0.0520833
 30
0.0
 40
0
 41
0
  0
VERTEX
  8
0
 10
0.270833
 20
0.0954318
 30
0.0
 40
0
 41
0
  0
VERTEX
  8
0
 10
0.283583
 20
0.0972765
 30
0.0
 40
0
 41
0
  0
VERTEX
  8
0
 10
0.320583
 20
0.112142
 30
0.0
 40
0
 41
0
  0
VERTEX
  8
0
 10
0.360135
 20
0.14426
 30
0.0
 40
0
 41
0
  0
VERTEX
  8
0
 10
0.386285
 20
0.187989
 30
0.0
 40
0
 41
0
  0
VERTEX
  8
0
 10
0.395779
 20
0.226725
 30
0.0
 40
0
 41
0
  0
VERTEX
  8
0
 10
0.395833
 20
0.239583
 30
0.0
 40
0
 41
0
  0
VERTEX
  8
0
 10
0.395833
 20
0.24349
 30
0.0
 40
0
 41
0
  0
VERTEX
  8
0
 10
0.389324
 20
0.255208
 30
0.0
 40
0
 41
0
  0
VERTEX
  8
0
 10
0.375
 20
0.260417
 30
0.0
 40
0
 41
0
  0
VERTEX
  8
0
 10
0.360678
 20
0.255208
 30
0.0
 40
0
 41
0
  0
VERTEX
  8
0
 10
0.354167
 20
0.24349
 30
0.0
 40
0
 41
0
  0
VERTEX
  8
0
 10
0.354167
 20
0.239583
 30
0.0
 40
0
 41
0
  0
VERTEX
  8
0
 10
0.354167
 20
0.232422
 30
0.0
 40
0
 41
0
  0
VERTEX
  8
0
 10
0.350043
 20
0.210775
 30
0.0
 40
0
 41
0
  0
VERTEX
  8
0
 10
0.338379
 20
0.184625
 30
0.0
 40
0
 41
0
  0
VERTEX
  8
0
 10
0.320096
 20
0.162651
 30
0.0
 40
0
 41
0
  0
VERTEX
  8
0
 10
0.302463
 20
0.149468
 30
0.0
 40
0
 41
0
  0
VERTEX
  8
0
 10
0.296007
 20
0.146268
 30
0.0
 40
0
 41
0
  0
VERTEX
  8
0
 10
0.28711
 20
0.141928
 30
0.0
 40
0
 41
0
  0
VERTEX
  8
0
 10
0.239692
 20
0.136068
 30
0.0
 40
0
 41
0
  0
VERTEX
  8
0
 10
0.19439
 20
0.151042
 30
0.0
 40
0
 41
0
  0
VERTEX
  8
0
 10
0.186578
 20
0.157064
 30
0.0
 40
0
 41
0
  0
VERTEX
  8
0
 10
0.201443
 20
0.171983
 30
0.0
 40
0
 41
0
  0
VERTEX
  8
0
 10
0.204969
 20
0.169433
 30
0.0
 40
0
 41
0
  0
VERTEX
  8
0
 10
0.245606
 20
0.156304
 30
0.0
 40
0
 41
0
  0
VERTEX
  8
0
 10
0.25
 20
0.15625
 30
0.0
 40
0
 41
0
  0
SEQEND
 8
0
  0
POLYLINE
  8
0
 62
     0
 66
     1
 10
0
 20
0
 30
0.0
 70
     1
 40
0
 41
0
  0
VERTEX
  8
0
 10
0.291667
 20
0.239583
 30
0.0
 40
0
 41
0
  0
VERTEX
  8
0
 10
0.291667
 20
0.235568
 30
0.0
 40
0
 41
0
  0
VERTEX
  8
0
 10
0.288357
 20
0.223415
 30
0.0
 40
0
 41
0
  0
VERTEX
  8
0
 10
0.27946
 20
0.210124
 30
0.0
 40
0
 41
0
  0
VERTEX
  8
0
 10
0.266168
 20
0.201226
 30
0.0
 40
0
 41
0
  0
VERTEX
  8
0
 10
0.254015
 20
0.197917
 30
0.0
 40
0
 41
0
  0
VERTEX
  8
0
 10
0.25
 20
0.197917
 30
0.0
 40
0
 41
0
  0
VERTEX
  8
0
 10
0.248372
 20
0.197971
 30
0.0
 40
0
 41
0
  0
VERTEX
  8
0
 10
0.233182
 20
0.201606
 30
0.0
 40
0
 41
0
  0
VERTEX
  8
0
 10
0.231771
 20
0.202311
 30
0.0
 40
0
 41
0
  0
VERTEX
  8
0
 10
0.291667
 20
0.262207
 30
0.0
 40
0
 41
0
  0
VERTEX
  8
0
 10
0.291667
 20
0.239583
 30
0.0
 40
0
 41
0
  0
SEQEND
 8
0
  0
POLYLINE
  8
0
 62
     0
 66
     1
 10
0
 20
0
 30
0.0
 70
     1
 40
0
 41
0
  0
VERTEX
  8
0
 10
0.208333
 20
0.239583
 30
0.0
 40
0
 41
0
  0
VERTEX
  8
0
 10
0.208333
 20
0.40625
 30
0.0
 40
0
 41
0
  0
VERTEX
  8
0
 10
0.208333
 20
0.414063
 30
0.0
 40
0
 41
0
  0
VERTEX
  8
0
 10
0.221354
 20
0.4375
 30
0.0
 40
0
 41
0
  0
VERTEX
  8
0
 10
0.25
 20
0.447917
 30
0.0
 40
0
 41
0
  0
VERTEX
  8
0
 10
0.278646
 20
0.4375
 30
0.0
 40
0
 41
0
  0
VERTEX
  8
0
 10
0.291667
 20
0.414063
 30
0.0
 40
0
 41
0
  0
VERTEX
  8
0
 10
0.291667
 20
0.40625
 30
0.0
 40
0
 41
0
  0
VERTEX
  8
0
 10
0.291667
 20
0.321126
 30
0.0
 40
0
 41
0
  0
VERTEX
  8
0
 10
0.208333
 20
0.237793
 30
0.0
 40
0
 41
0
  0
VERTEX
  8
0
 10
0.208333
 20
0.238282
 30
0.0
 40
0
 41
0
  0
VERTEX
  8
0
 10
0.208333
 20
0.239258
 30
0.0
 40
0
 41
0
  0
VERTEX
  8
0
 10
0.208333
 20
0.239583
 30
0.0
 40
0
 41
0
  0
SEQEND
 8
0
  0
ENDSEC
  0
EOF
