<?xml version="1.0" encoding="UTF-8" standalone="no"?>
<svg
   xmlns:dc="http://purl.org/dc/elements/1.1/"
   xmlns:cc="http://creativecommons.org/ns#"
   xmlns:rdf="http://www.w3.org/1999/02/22-rdf-syntax-ns#"
   xmlns:svg="http://www.w3.org/2000/svg"
   xmlns="http://www.w3.org/2000/svg"
   xmlns:sodipodi="http://sodipodi.sourceforge.net/DTD/sodipodi-0.dtd"
   xmlns:inkscape="http://www.inkscape.org/namespaces/inkscape"
   inkscape:version="1.0 (4035a4fb49, 2020-05-01)"
   sodipodi:docname="Minimize.svg"
   viewBox="0, 0, 400,400"
   height="400"
   width="400"
   version="1.1"
   id="svg">
  <metadata
     id="metadata2020">
    <rdf:RDF>
      <cc:Work
         rdf:about="">
        <dc:format>image/svg+xml</dc:format>
        <dc:type
           rdf:resource="http://purl.org/dc/dcmitype/StillImage" />
      </cc:Work>
    </rdf:RDF>
  </metadata>
  <defs
     id="defs2018" />
  <sodipodi:namedview
     inkscape:current-layer="svg"
     inkscape:window-maximized="1"
     inkscape:window-y="892"
     inkscape:window-x="-8"
     inkscape:cy="200"
     inkscape:cx="200"
     inkscape:zoom="2.125"
     showgrid="false"
     id="namedview2016"
     inkscape:window-height="1017"
     inkscape:window-width="1920"
     inkscape:pageshadow="2"
     inkscape:pageopacity="0"
     guidetolerance="10"
     gridtolerance="10"
     objecttolerance="10"
     borderopacity="1"
     bordercolor="#666666"
     pagecolor="#ffffff" />
  <g
     transform="matrix(-0.11649329,0,0,-0.11648073,48.714305,48.808371)"
     id="svgg">
    <path
       fill-rule="evenodd"
       fill="#000000"
       stroke="none"
       d="M 25.483,3.55 C 14.412,6.523 6.372,14.711 3.495,25.94 2.431,30.094 2.322,49.376 2.501,201.982 l 0.202,171.377 1.748,4.247 c 3.715,9.023 11.303,16.082 20.004,18.608 5.586,1.622 345.504,1.622 351.09,0 8.701,-2.526 16.289,-9.585 20.004,-18.608 l 1.748,-4.247 V 200.772 C 397.297,10.08 397.701,24.7 392.201,16.191 388.894,11.074 383.863,7.027 377.606,4.451 L 373.359,2.703 201.544,2.556 C 52.116,2.429 29.176,2.558 25.483,3.55 m 345.595,25.372 1.895,1.896 V 200 369.182 l -1.895,1.896 -1.896,1.895 H 200 30.818 l -1.896,-1.895 -1.895,-1.896 V 206.793 44.404 l 77.609,77.605 77.608,77.605 -29.925,0.386 c -34.117,0.44 -33.739,0.369 -37.068,6.938 -3.174,6.263 -1.028,12.903 5.183,16.035 l 3.445,1.737 h 45.233 45.233 l 3.445,-1.737 c 2.517,-1.269 3.914,-2.666 5.183,-5.183 l 1.737,-3.445 v -45.233 -45.233 l -1.737,-3.445 c -3.132,-6.211 -9.772,-8.357 -16.035,-5.183 -6.569,3.329 -6.498,2.951 -6.938,37.068 l -0.386,29.925 -77.605,-77.608 -77.605,-77.609 h 162.389 162.389 l 1.896,1.895"
       id="path0" />
  </g>
</svg>
