  0
SECTION
  2
HEADER
  9
$ACADVER
  1
AC1009
  9
$FILLMODE
 70
 0
  9
$SPLFRAME
 70
 1
  9
$EXTMIN
 10
0
 20
0
 30
0.0
  9
$EXTMAX
 10
41.6667
 20
41.6667
 30
0.0
  0
ENDSEC
  0
SECTION
  2
TABLES
  0
TABLE
  2
LAYER
 70
1
  0
LAYER
  2
0
 70
     0
 62
     7
  6
CONTINUOUS
  0
ENDTAB
  0
ENDSEC
  0
SECTION
  2
ENTITIES
  0
POLYLINE
  8
0
 62
     0
 66
     1
 10
0
 20
0
 30
0.0
 70
     1
 40
0
 41
0
  0
VERTEX
  8
0
 10
0.476508
 20
3.66254
 30
0.0
 40
0
 41
0
  0
VERTEX
  8
0
 10
0.479872
 20
3.66347
 30
0.0
 40
0
 41
0
  0
VERTEX
  8
0
 10
0.493599
 20
3.67242
 30
0.0
 40
0
 41
0
  0
VERTEX
  8
0
 10
0.502333
 20
3.68636
 30
0.0
 40
0
 41
0
  0
VERTEX
  8
0
 10
0.503201
 20
3.68972
 30
0.0
 40
0
 41
0
  0
VERTEX
  8
0
 10
0.503364
 20
3.69049
 30
0.0
 40
0
 41
0
  0
VERTEX
  8
0
 10
0.503635
 20
3.69276
 30
0.0
 40
0
 41
0
  0
VERTEX
  8
0
 10
0.503961
 20
3.69922
 30
0.0
 40
0
 41
0
  0
VERTEX
  8
0
 10
0.504178
 20
3.71072
 30
0.0
 40
0
 41
0
  0
VERTEX
  8
0
 10
0.50434
 20
3.729
 30
0.0
 40
0
 41
0
  0
VERTEX
  8
0
 10
0.504449
 20
3.75569
 30
0.0
 40
0
 41
0
  0
VERTEX
  8
0
 10
0.504449
 20
3.79258
 30
0.0
 40
0
 41
0
  0
VERTEX
  8
0
 10
0.504449
 20
3.84119
 30
0.0
 40
0
 41
0
  0
VERTEX
  8
0
 10
0.504394
 20
3.88781
 30
0.0
 40
0
 41
0
  0
VERTEX
  8
0
 10
0.504394
 20
3.90332
 30
0.0
 40
0
 41
0
  0
VERTEX
  8
0
 10
0.504178
 20
4.11128
 30
0.0
 40
0
 41
0
  0
VERTEX
  8
0
 10
0.502061
 20
4.11643
 30
0.0
 40
0
 41
0
  0
VERTEX
  8
0
 10
0.500922
 20
4.11919
 30
0.0
 40
0
 41
0
  0
VERTEX
  8
0
 10
0.492133
 20
4.13064
 30
0.0
 40
0
 41
0
  0
VERTEX
  8
0
 10
0.48036
 20
4.13824
 30
0.0
 40
0
 41
0
  0
VERTEX
  8
0
 10
0.477756
 20
4.139
 30
0.0
 40
0
 41
0
  0
VERTEX
  8
0
 10
0.476019
 20
4.13949
 30
0.0
 40
0
 41
0
  0
VERTEX
  8
0
 10
0.457736
 20
4.13965
 30
0.0
 40
0
 41
0
  0
VERTEX
  8
0
 10
0.409233
 20
4.14014
 30
0.0
 40
0
 41
0
  0
VERTEX
  8
0
 10
0.341743
 20
4.1404
 30
0.0
 40
0
 41
0
  0
VERTEX
  8
0
 10
0.264703
 20
4.14046
 30
0.0
 40
0
 41
0
  0
VERTEX
  8
0
 10
0.187662
 20
4.1404
 30
0.0
 40
0
 41
0
  0
VERTEX
  8
0
 10
0.120171
 20
4.14014
 30
0.0
 40
0
 41
0
  0
VERTEX
  8
0
 10
0.0716689
 20
4.13965
 30
0.0
 40
0
 41
0
  0
VERTEX
  8
0
 10
0.0533854
 20
4.13949
 30
0.0
 40
0
 41
0
  0
VERTEX
  8
0
 10
0.0517036
 20
4.139
 30
0.0
 40
0
 41
0
  0
VERTEX
  8
0
 10
0.0490451
 20
4.13824
 30
0.0
 40
0
 41
0
  0
VERTEX
  8
0
 10
0.0372721
 20
4.13064
 30
0.0
 40
0
 41
0
  0
VERTEX
  8
0
 10
0.0285374
 20
4.11919
 30
0.0
 40
0
 41
0
  0
VERTEX
  8
0
 10
0.0274522
 20
4.11643
 30
0.0
 40
0
 41
0
  0
VERTEX
  8
0
 10
0.0253364
 20
4.11128
 30
0.0
 40
0
 41
0
  0
VERTEX
  8
0
 10
0.0253364
 20
3.90186
 30
0.0
 40
0
 41
0
  0
VERTEX
  8
0
 10
0.0253364
 20
3.86908
 30
0.0
 40
0
 41
0
  0
VERTEX
  8
0
 10
0.0253364
 20
3.77072
 30
0.0
 40
0
 41
0
  0
VERTEX
  8
0
 10
0.0258789
 20
3.70697
 30
0.0
 40
0
 41
0
  0
VERTEX
  8
0
 10
0.0277235
 20
3.68474
 30
0.0
 40
0
 41
0
  0
VERTEX
  8
0
 10
0.0304363
 20
3.67953
 30
0.0
 40
0
 41
0
  0
VERTEX
  8
0
 10
0.0315213
 20
3.6779
 30
0.0
 40
0
 41
0
  0
VERTEX
  8
0
 10
0.0324978
 20
3.67638
 30
0.0
 40
0
 41
0
  0
VERTEX
  8
0
 10
0.047309
 20
3.66444
 30
0.0
 40
0
 41
0
  0
VERTEX
  8
0
 10
0.0492079
 20
3.66363
 30
0.0
 40
0
 41
0
  0
VERTEX
  8
0
 10
0.0543619
 20
3.66151
 30
0.0
 40
0
 41
0
  0
VERTEX
  8
0
 10
0.262858
 20
3.66135
 30
0.0
 40
0
 41
0
  0
VERTEX
  8
0
 10
0.278103
 20
3.66135
 30
0.0
 40
0
 41
0
  0
VERTEX
  8
0
 10
0.323893
 20
3.66135
 30
0.0
 40
0
 41
0
  0
VERTEX
  8
0
 10
0.372071
 20
3.66135
 30
0.0
 40
0
 41
0
  0
VERTEX
  8
0
 10
0.408962
 20
3.66135
 30
0.0
 40
0
 41
0
  0
VERTEX
  8
0
 10
0.435981
 20
3.66146
 30
0.0
 40
0
 41
0
  0
VERTEX
  8
0
 10
0.454753
 20
3.66162
 30
0.0
 40
0
 41
0
  0
VERTEX
  8
0
 10
0.466743
 20
3.66183
 30
0.0
 40
0
 41
0
  0
VERTEX
  8
0
 10
0.473469
 20
3.66217
 30
0.0
 40
0
 41
0
  0
VERTEX
  8
0
 10
0.475749
 20
3.66238
 30
0.0
 40
0
 41
0
  0
VERTEX
  8
0
 10
0.476508
 20
3.66254
 30
0.0
 40
0
 41
0
  0
SEQEND
 8
0
  0
POLYLINE
  8
0
 62
     0
 66
     1
 10
0
 20
0
 30
0.0
 70
     1
 40
0
 41
0
  0
VERTEX
  8
0
 10
0.0571289
 20
3.69336
 30
0.0
 40
0
 41
0
  0
VERTEX
  8
0
 10
0.0548503
 20
3.69564
 30
0.0
 40
0
 41
0
  0
VERTEX
  8
0
 10
0.0548503
 20
4.10618
 30
0.0
 40
0
 41
0
  0
VERTEX
  8
0
 10
0.0571289
 20
4.10851
 30
0.0
 40
0
 41
0
  0
VERTEX
  8
0
 10
0.0594618
 20
4.11079
 30
0.0
 40
0
 41
0
  0
VERTEX
  8
0
 10
0.470053
 20
4.11079
 30
0.0
 40
0
 41
0
  0
VERTEX
  8
0
 10
0.474664
 20
4.10618
 30
0.0
 40
0
 41
0
  0
VERTEX
  8
0
 10
0.474664
 20
3.71213
 30
0.0
 40
0
 41
0
  0
VERTEX
  8
0
 10
0.380479
 20
3.80626
 30
0.0
 40
0
 41
0
  0
VERTEX
  8
0
 10
0.286296
 20
3.90044
 30
0.0
 40
0
 41
0
  0
VERTEX
  8
0
 10
0.322592
 20
3.90093
 30
0.0
 40
0
 41
0
  0
VERTEX
  8
0
 10
0.32856
 20
3.90104
 30
0.0
 40
0
 41
0
  0
VERTEX
  8
0
 10
0.346517
 20
3.90136
 30
0.0
 40
0
 41
0
  0
VERTEX
  8
0
 10
0.35905
 20
3.90235
 30
0.0
 40
0
 41
0
  0
VERTEX
  8
0
 10
0.364638
 20
3.90479
 30
0.0
 40
0
 41
0
  0
VERTEX
  8
0
 10
0.366971
 20
3.90815
 30
0.0
 40
0
 41
0
  0
VERTEX
  8
0
 10
0.367567
 20
3.90935
 30
0.0
 40
0
 41
0
  0
VERTEX
  8
0
 10
0.36849
 20
3.91124
 30
0.0
 40
0
 41
0
  0
VERTEX
  8
0
 10
0.368653
 20
3.92051
 30
0.0
 40
0
 41
0
  0
VERTEX
  8
0
 10
0.363118
 20
3.92785
 30
0.0
 40
0
 41
0
  0
VERTEX
  8
0
 10
0.361274
 20
3.92876
 30
0.0
 40
0
 41
0
  0
VERTEX
  8
0
 10
0.357096
 20
3.93088
 30
0.0
 40
0
 41
0
  0
VERTEX
  8
0
 10
0.247342
 20
3.93088
 30
0.0
 40
0
 41
0
  0
VERTEX
  8
0
 10
0.243164
 20
3.92876
 30
0.0
 40
0
 41
0
  0
VERTEX
  8
0
 10
0.242404
 20
3.92839
 30
0.0
 40
0
 41
0
  0
VERTEX
  8
0
 10
0.23725
 20
3.92329
 30
0.0
 40
0
 41
0
  0
VERTEX
  8
0
 10
0.236871
 20
3.92253
 30
0.0
 40
0
 41
0
  0
VERTEX
  8
0
 10
0.234754
 20
3.91829
 30
0.0
 40
0
 41
0
  0
VERTEX
  8
0
 10
0.234754
 20
3.80854
 30
0.0
 40
0
 41
0
  0
VERTEX
  8
0
 10
0.236871
 20
3.80436
 30
0.0
 40
0
 41
0
  0
VERTEX
  8
0
 10
0.237793
 20
3.80251
 30
0.0
 40
0
 41
0
  0
VERTEX
  8
0
 10
0.245171
 20
3.79699
 30
0.0
 40
0
 41
0
  0
VERTEX
  8
0
 10
0.254449
 20
3.79715
 30
0.0
 40
0
 41
0
  0
VERTEX
  8
0
 10
0.256347
 20
3.79807
 30
0.0
 40
0
 41
0
  0
VERTEX
  8
0
 10
0.257542
 20
3.79872
 30
0.0
 40
0
 41
0
  0
VERTEX
  8
0
 10
0.260906
 20
3.801
 30
0.0
 40
0
 41
0
  0
VERTEX
  8
0
 10
0.263292
 20
3.80658
 30
0.0
 40
0
 41
0
  0
VERTEX
  8
0
 10
0.264324
 20
3.81917
 30
0.0
 40
0
 41
0
  0
VERTEX
  8
0
 10
0.264649
 20
3.83708
 30
0.0
 40
0
 41
0
  0
VERTEX
  8
0
 10
0.264757
 20
3.84304
 30
0.0
 40
0
 41
0
  0
VERTEX
  8
0
 10
0.265192
 20
3.87939
 30
0.0
 40
0
 41
0
  0
VERTEX
  8
0
 10
0.45356
 20
3.69103
 30
0.0
 40
0
 41
0
  0
VERTEX
  8
0
 10
0.0594618
 20
3.69103
 30
0.0
 40
0
 41
0
  0
VERTEX
  8
0
 10
0.0571289
 20
3.69336
 30
0.0
 40
0
 41
0
  0
SEQEND
 8
0
  0
ENDSEC
  0
EOF
