  0
SECTION
  2
HEADER
  9
$ACADVER
  1
AC1009
  9
$FILLMODE
 70
 0
  9
$SPLFRAME
 70
 1
  9
$EXTMIN
 10
0
 20
0
 30
0.0
  9
$EXTMAX
 10
41.6667
 20
41.6667
 30
0.0
  0
ENDSEC
  0
SECTION
  2
TABLES
  0
TABLE
  2
LAYER
 70
1
  0
LAYER
  2
0
 70
     0
 62
     7
  6
CONTINUOUS
  0
ENDTAB
  0
ENDSEC
  0
SECTION
  2
ENTITIES
  0
POLYLINE
  8
0
 62
     0
 66
     1
 10
0
 20
0
 30
0.0
 70
     1
 40
0
 41
0
  0
VERTEX
  8
0
 10
0.138021
 20
3.6735
 30
0.0
 40
0
 41
0
  0
VERTEX
  8
0
 10
0.138346
 20
3.67367
 30
0.0
 40
0
 41
0
  0
VERTEX
  8
0
 10
0.146864
 20
3.67865
 30
0.0
 40
0
 41
0
  0
VERTEX
  8
0
 10
0.169379
 20
3.69185
 30
0.0
 40
0
 41
0
  0
VERTEX
  8
0
 10
0.20204
 20
3.71104
 30
0.0
 40
0
 41
0
  0
VERTEX
  8
0
 10
0.231663
 20
3.72846
 30
0.0
 40
0
 41
0
  0
VERTEX
  8
0
 10
0.241536
 20
3.73426
 30
0.0
 40
0
 41
0
  0
VERTEX
  8
0
 10
0.342665
 20
3.79394
 30
0.0
 40
0
 41
0
  0
VERTEX
  8
0
 10
0.460069
 20
3.79449
 30
0.0
 40
0
 41
0
  0
VERTEX
  8
0
 10
0.463325
 20
3.79676
 30
0.0
 40
0
 41
0
  0
VERTEX
  8
0
 10
0.463758
 20
3.7971
 30
0.0
 40
0
 41
0
  0
VERTEX
  8
0
 10
0.468533
 20
3.80192
 30
0.0
 40
0
 41
0
  0
VERTEX
  8
0
 10
0.468858
 20
3.80236
 30
0.0
 40
0
 41
0
  0
VERTEX
  8
0
 10
0.471138
 20
3.80567
 30
0.0
 40
0
 41
0
  0
VERTEX
  8
0
 10
0.471138
 20
4.01818
 30
0.0
 40
0
 41
0
  0
VERTEX
  8
0
 10
0.468858
 20
4.02149
 30
0.0
 40
0
 41
0
  0
VERTEX
  8
0
 10
0.468533
 20
4.02197
 30
0.0
 40
0
 41
0
  0
VERTEX
  8
0
 10
0.463758
 20
4.02681
 30
0.0
 40
0
 41
0
  0
VERTEX
  8
0
 10
0.463325
 20
4.02707
 30
0.0
 40
0
 41
0
  0
VERTEX
  8
0
 10
0.460069
 20
4.02935
 30
0.0
 40
0
 41
0
  0
VERTEX
  8
0
 10
0.401693
 20
4.02935
 30
0.0
 40
0
 41
0
  0
VERTEX
  8
0
 10
0.398113
 20
4.02647
 30
0.0
 40
0
 41
0
  0
VERTEX
  8
0
 10
0.395344
 20
4.02431
 30
0.0
 40
0
 41
0
  0
VERTEX
  8
0
 10
0.390463
 20
4.00971
 30
0.0
 40
0
 41
0
  0
VERTEX
  8
0
 10
0.396918
 20
3.99631
 30
0.0
 40
0
 41
0
  0
VERTEX
  8
0
 10
0.399903
 20
3.99468
 30
0.0
 40
0
 41
0
  0
VERTEX
  8
0
 10
0.400771
 20
3.99425
 30
0.0
 40
0
 41
0
  0
VERTEX
  8
0
 10
0.405653
 20
3.99289
 30
0.0
 40
0
 41
0
  0
VERTEX
  8
0
 10
0.41569
 20
3.99235
 30
0.0
 40
0
 41
0
  0
VERTEX
  8
0
 10
0.419054
 20
3.99224
 30
0.0
 40
0
 41
0
  0
VERTEX
  8
0
 10
0.434244
 20
3.99192
 30
0.0
 40
0
 41
0
  0
VERTEX
  8
0
 10
0.434244
 20
3.83176
 30
0.0
 40
0
 41
0
  0
VERTEX
  8
0
 10
0.35574
 20
3.83176
 30
0.0
 40
0
 41
0
  0
VERTEX
  8
0
 10
0.35574
 20
3.88883
 30
0.0
 40
0
 41
0
  0
VERTEX
  8
0
 10
0.35574
 20
3.89632
 30
0.0
 40
0
 41
0
  0
VERTEX
  8
0
 10
0.355686
 20
3.91872
 30
0.0
 40
0
 41
0
  0
VERTEX
  8
0
 10
0.355469
 20
3.93653
 30
0.0
 40
0
 41
0
  0
VERTEX
  8
0
 10
0.354981
 20
3.94564
 30
0.0
 40
0
 41
0
  0
VERTEX
  8
0
 10
0.354546
 20
3.94868
 30
0.0
 40
0
 41
0
  0
VERTEX
  8
0
 10
0.354275
 20
3.94943
 30
0.0
 40
0
 41
0
  0
VERTEX
  8
0
 10
0.352647
 20
3.95329
 30
0.0
 40
0
 41
0
  0
VERTEX
  8
0
 10
0.337022
 20
3.96094
 30
0.0
 40
0
 41
0
  0
VERTEX
  8
0
 10
0.321397
 20
3.95329
 30
0.0
 40
0
 41
0
  0
VERTEX
  8
0
 10
0.319824
 20
3.94943
 30
0.0
 40
0
 41
0
  0
VERTEX
  8
0
 10
0.319499
 20
3.94868
 30
0.0
 40
0
 41
0
  0
VERTEX
  8
0
 10
0.319011
 20
3.94553
 30
0.0
 40
0
 41
0
  0
VERTEX
  8
0
 10
0.318576
 20
3.93587
 30
0.0
 40
0
 41
0
  0
VERTEX
  8
0
 10
0.31836
 20
3.91689
 30
0.0
 40
0
 41
0
  0
VERTEX
  8
0
 10
0.318306
 20
3.89285
 30
0.0
 40
0
 41
0
  0
VERTEX
  8
0
 10
0.318306
 20
3.88482
 30
0.0
 40
0
 41
0
  0
VERTEX
  8
0
 10
0.318306
 20
3.82374
 30
0.0
 40
0
 41
0
  0
VERTEX
  8
0
 10
0.235135
 20
3.77468
 30
0.0
 40
0
 41
0
  0
VERTEX
  8
0
 10
0.227051
 20
3.76992
 30
0.0
 40
0
 41
0
  0
VERTEX
  8
0
 10
0.2028
 20
3.75564
 30
0.0
 40
0
 41
0
  0
VERTEX
  8
0
 10
0.176161
 20
3.73996
 30
0.0
 40
0
 41
0
  0
VERTEX
  8
0
 10
0.157986
 20
3.72933
 30
0.0
 40
0
 41
0
  0
VERTEX
  8
0
 10
0.151204
 20
3.72537
 30
0.0
 40
0
 41
0
  0
VERTEX
  8
0
 10
0.151096
 20
3.72532
 30
0.0
 40
0
 41
0
  0
VERTEX
  8
0
 10
0.151096
 20
3.72532
 30
0.0
 40
0
 41
0
  0
VERTEX
  8
0
 10
0.150174
 20
3.73182
 30
0.0
 40
0
 41
0
  0
VERTEX
  8
0
 10
0.150174
 20
3.734
 30
0.0
 40
0
 41
0
  0
VERTEX
  8
0
 10
0.150174
 20
3.73768
 30
0.0
 40
0
 41
0
  0
VERTEX
  8
0
 10
0.148926
 20
3.74869
 30
0.0
 40
0
 41
0
  0
VERTEX
  8
0
 10
0.145236
 20
3.75575
 30
0.0
 40
0
 41
0
  0
VERTEX
  8
0
 10
0.144043
 20
3.75689
 30
0.0
 40
0
 41
0
  0
VERTEX
  8
0
 10
0.141764
 20
3.75911
 30
0.0
 40
0
 41
0
  0
VERTEX
  8
0
 10
0.128038
 20
3.76215
 30
0.0
 40
0
 41
0
  0
VERTEX
  8
0
 10
0.115885
 20
3.75504
 30
0.0
 40
0
 41
0
  0
VERTEX
  8
0
 10
0.114421
 20
3.75222
 30
0.0
 40
0
 41
0
  0
VERTEX
  8
0
 10
0.11377
 20
3.75103
 30
0.0
 40
0
 41
0
  0
VERTEX
  8
0
 10
0.112793
 20
3.74056
 30
0.0
 40
0
 41
0
  0
VERTEX
  8
0
 10
0.112088
 20
3.71907
 30
0.0
 40
0
 41
0
  0
VERTEX
  8
0
 10
0.11225
 20
3.69721
 30
0.0
 40
0
 41
0
  0
VERTEX
  8
0
 10
0.112902
 20
3.68608
 30
0.0
 40
0
 41
0
  0
VERTEX
  8
0
 10
0.113553
 20
3.68435
 30
0.0
 40
0
 41
0
  0
VERTEX
  8
0
 10
0.114366
 20
3.68207
 30
0.0
 40
0
 41
0
  0
VERTEX
  8
0
 10
0.123752
 20
3.67399
 30
0.0
 40
0
 41
0
  0
VERTEX
  8
0
 10
0.135851
 20
3.67253
 30
0.0
 40
0
 41
0
  0
VERTEX
  8
0
 10
0.138021
 20
3.6735
 30
0.0
 40
0
 41
0
  0
SEQEND
 8
0
  0
POLYLINE
  8
0
 62
     0
 66
     1
 10
0
 20
0
 30
0.0
 70
     1
 40
0
 41
0
  0
VERTEX
  8
0
 10
0.0228407
 20
3.69803
 30
0.0
 40
0
 41
0
  0
VERTEX
  8
0
 10
0.0230035
 20
3.69808
 30
0.0
 40
0
 41
0
  0
VERTEX
  8
0
 10
0.0236003
 20
3.69808
 30
0.0
 40
0
 41
0
  0
VERTEX
  8
0
 10
0.0255533
 20
3.69933
 30
0.0
 40
0
 41
0
  0
VERTEX
  8
0
 10
0.0320637
 20
3.70503
 30
0.0
 40
0
 41
0
  0
VERTEX
  8
0
 10
0.0467665
 20
3.71847
 30
0.0
 40
0
 41
0
  0
VERTEX
  8
0
 10
0.0730251
 20
3.74294
 30
0.0
 40
0
 41
0
  0
VERTEX
  8
0
 10
0.114475
 20
3.78157
 30
0.0
 40
0
 41
0
  0
VERTEX
  8
0
 10
0.174533
 20
3.83768
 30
0.0
 40
0
 41
0
  0
VERTEX
  8
0
 10
0.236219
 20
3.89529
 30
0.0
 40
0
 41
0
  0
VERTEX
  8
0
 10
0.256782
 20
3.91444
 30
0.0
 40
0
 41
0
  0
VERTEX
  8
0
 10
0.269749
 20
3.9266
 30
0.0
 40
0
 41
0
  0
VERTEX
  8
0
 10
0.308649
 20
3.963
 30
0.0
 40
0
 41
0
  0
VERTEX
  8
0
 10
0.353244
 20
4.00472
 30
0.0
 40
0
 41
0
  0
VERTEX
  8
0
 10
0.390625
 20
4.03976
 30
0.0
 40
0
 41
0
  0
VERTEX
  8
0
 10
0.420953
 20
4.06831
 30
0.0
 40
0
 41
0
  0
VERTEX
  8
0
 10
0.444336
 20
4.09044
 30
0.0
 40
0
 41
0
  0
VERTEX
  8
0
 10
0.460992
 20
4.10633
 30
0.0
 40
0
 41
0
  0
VERTEX
  8
0
 10
0.471029
 20
4.1161
 30
0.0
 40
0
 41
0
  0
VERTEX
  8
0
 10
0.474393
 20
4.11931
 30
0.0
 40
0
 41
0
  0
VERTEX
  8
0
 10
0.474664
 20
4.11985
 30
0.0
 40
0
 41
0
  0
VERTEX
  8
0
 10
0.475857
 20
4.1224
 30
0.0
 40
0
 41
0
  0
VERTEX
  8
0
 10
0.476183
 20
4.13157
 30
0.0
 40
0
 41
0
  0
VERTEX
  8
0
 10
0.471138
 20
4.14133
 30
0.0
 40
0
 41
0
  0
VERTEX
  8
0
 10
0.461697
 20
4.14675
 30
0.0
 40
0
 41
0
  0
VERTEX
  8
0
 10
0.452582
 20
4.14675
 30
0.0
 40
0
 41
0
  0
VERTEX
  8
0
 10
0.450087
 20
4.14561
 30
0.0
 40
0
 41
0
  0
VERTEX
  8
0
 10
0.449164
 20
4.14524
 30
0.0
 40
0
 41
0
  0
VERTEX
  8
0
 10
0.429904
 20
4.12739
 30
0.0
 40
0
 41
0
  0
VERTEX
  8
0
 10
0.378907
 20
4.08024
 30
0.0
 40
0
 41
0
  0
VERTEX
  8
0
 10
0.307346
 20
4.01372
 30
0.0
 40
0
 41
0
  0
VERTEX
  8
0
 10
0.225478
 20
3.93744
 30
0.0
 40
0
 41
0
  0
VERTEX
  8
0
 10
0.143664
 20
3.861
 30
0.0
 40
0
 41
0
  0
VERTEX
  8
0
 10
0.0720486
 20
3.79394
 30
0.0
 40
0
 41
0
  0
VERTEX
  8
0
 10
0.0209961
 20
3.74588
 30
0.0
 40
0
 41
0
  0
VERTEX
  8
0
 10
0.00168186
 20
3.72775
 30
0.0
 40
0
 41
0
  0
VERTEX
  8
0
 10
0.000759549
 20
3.7264
 30
0.0
 40
0
 41
0
  0
VERTEX
  8
0
 10
-0.000868056
 20
3.72418
 30
0.0
 40
0
 41
0
  0
VERTEX
  8
0
 10
-0.00260417
 20
3.71511
 30
0.0
 40
0
 41
0
  0
VERTEX
  8
0
 10
0.00146485
 20
3.70475
 30
0.0
 40
0
 41
0
  0
VERTEX
  8
0
 10
0.0106337
 20
3.69808
 30
0.0
 40
0
 41
0
  0
VERTEX
  8
0
 10
0.0200738
 20
3.69715
 30
0.0
 40
0
 41
0
  0
VERTEX
  8
0
 10
0.0228407
 20
3.69803
 30
0.0
 40
0
 41
0
  0
SEQEND
 8
0
  0
POLYLINE
  8
0
 62
     0
 66
     1
 10
0
 20
0
 30
0.0
 70
     1
 40
0
 41
0
  0
VERTEX
  8
0
 10
0.135688
 20
3.875
 30
0.0
 40
0
 41
0
  0
VERTEX
  8
0
 10
0.137424
 20
3.87549
 30
0.0
 40
0
 41
0
  0
VERTEX
  8
0
 10
0.148763
 20
3.88747
 30
0.0
 40
0
 41
0
  0
VERTEX
  8
0
 10
0.149143
 20
3.88926
 30
0.0
 40
0
 41
0
  0
VERTEX
  8
0
 10
0.149306
 20
3.89014
 30
0.0
 40
0
 41
0
  0
VERTEX
  8
0
 10
0.149576
 20
3.89751
 30
0.0
 40
0
 41
0
  0
VERTEX
  8
0
 10
0.149903
 20
3.91775
 30
0.0
 40
0
 41
0
  0
VERTEX
  8
0
 10
0.150065
 20
3.95079
 30
0.0
 40
0
 41
0
  0
VERTEX
  8
0
 10
0.150174
 20
3.98574
 30
0.0
 40
0
 41
0
  0
VERTEX
  8
0
 10
0.150174
 20
3.99735
 30
0.0
 40
0
 41
0
  0
VERTEX
  8
0
 10
0.150174
 20
4.00738
 30
0.0
 40
0
 41
0
  0
VERTEX
  8
0
 10
0.150174
 20
4.03743
 30
0.0
 40
0
 41
0
  0
VERTEX
  8
0
 10
0.150228
 20
4.07026
 30
0.0
 40
0
 41
0
  0
VERTEX
  8
0
 10
0.150336
 20
4.09239
 30
0.0
 40
0
 41
0
  0
VERTEX
  8
0
 10
0.150444
 20
4.10053
 30
0.0
 40
0
 41
0
  0
VERTEX
  8
0
 10
0.150499
 20
4.10053
 30
0.0
 40
0
 41
0
  0
VERTEX
  8
0
 10
0.151964
 20
4.10053
 30
0.0
 40
0
 41
0
  0
VERTEX
  8
0
 10
0.156358
 20
4.0975
 30
0.0
 40
0
 41
0
  0
VERTEX
  8
0
 10
0.172092
 20
4.08914
 30
0.0
 40
0
 41
0
  0
VERTEX
  8
0
 10
0.195313
 20
4.07682
 30
0.0
 40
0
 41
0
  0
VERTEX
  8
0
 10
0.216525
 20
4.06554
 30
0.0
 40
0
 41
0
  0
VERTEX
  8
0
 10
0.223633
 20
4.06174
 30
0.0
 40
0
 41
0
  0
VERTEX
  8
0
 10
0.234646
 20
4.05588
 30
0.0
 40
0
 41
0
  0
VERTEX
  8
0
 10
0.267904
 20
4.03819
 30
0.0
 40
0
 41
0
  0
VERTEX
  8
0
 10
0.291504
 20
4.02632
 30
0.0
 40
0
 41
0
  0
VERTEX
  8
0
 10
0.3023
 20
4.02235
 30
0.0
 40
0
 41
0
  0
VERTEX
  8
0
 10
0.306967
 20
4.0224
 30
0.0
 40
0
 41
0
  0
VERTEX
  8
0
 10
0.308485
 20
4.02268
 30
0.0
 40
0
 41
0
  0
VERTEX
  8
0
 10
0.311578
 20
4.02328
 30
0.0
 40
0
 41
0
  0
VERTEX
  8
0
 10
0.320856
 20
4.0351
 30
0.0
 40
0
 41
0
  0
VERTEX
  8
0
 10
0.319661
 20
4.05083
 30
0.0
 40
0
 41
0
  0
VERTEX
  8
0
 10
0.317492
 20
4.05333
 30
0.0
 40
0
 41
0
  0
VERTEX
  8
0
 10
0.316407
 20
4.05464
 30
0.0
 40
0
 41
0
  0
VERTEX
  8
0
 10
0.308539
 20
4.05897
 30
0.0
 40
0
 41
0
  0
VERTEX
  8
0
 10
0.287651
 20
4.07075
 30
0.0
 40
0
 41
0
  0
VERTEX
  8
0
 10
0.258735
 20
4.08643
 30
0.0
 40
0
 41
0
  0
VERTEX
  8
0
 10
0.225803
 20
4.10406
 30
0.0
 40
0
 41
0
  0
VERTEX
  8
0
 10
0.192708
 20
4.12142
 30
0.0
 40
0
 41
0
  0
VERTEX
  8
0
 10
0.163519
 20
4.1365
 30
0.0
 40
0
 41
0
  0
VERTEX
  8
0
 10
0.142144
 20
4.14719
 30
0.0
 40
0
 41
0
  0
VERTEX
  8
0
 10
0.134169
 20
4.15121
 30
0.0
 40
0
 41
0
  0
VERTEX
  8
0
 10
0.13265
 20
4.15132
 30
0.0
 40
0
 41
0
  0
VERTEX
  8
0
 10
0.130588
 20
4.15153
 30
0.0
 40
0
 41
0
  0
VERTEX
  8
0
 10
0.115289
 20
4.14296
 30
0.0
 40
0
 41
0
  0
VERTEX
  8
0
 10
0.114421
 20
4.14117
 30
0.0
 40
0
 41
0
  0
VERTEX
  8
0
 10
0.112305
 20
4.13688
 30
0.0
 40
0
 41
0
  0
VERTEX
  8
0
 10
0.112088
 20
4.01622
 30
0.0
 40
0
 41
0
  0
VERTEX
  8
0
 10
0.112033
 20
4.0031
 30
0.0
 40
0
 41
0
  0
VERTEX
  8
0
 10
0.112033
 20
3.96349
 30
0.0
 40
0
 41
0
  0
VERTEX
  8
0
 10
0.112088
 20
3.92475
 30
0.0
 40
0
 41
0
  0
VERTEX
  8
0
 10
0.112359
 20
3.90028
 30
0.0
 40
0
 41
0
  0
VERTEX
  8
0
 10
0.11263
 20
3.89117
 30
0.0
 40
0
 41
0
  0
VERTEX
  8
0
 10
0.112793
 20
3.89031
 30
0.0
 40
0
 41
0
  0
VERTEX
  8
0
 10
0.113281
 20
3.88758
 30
0.0
 40
0
 41
0
  0
VERTEX
  8
0
 10
0.121094
 20
3.87761
 30
0.0
 40
0
 41
0
  0
VERTEX
  8
0
 10
0.133084
 20
3.87435
 30
0.0
 40
0
 41
0
  0
VERTEX
  8
0
 10
0.135688
 20
3.875
 30
0.0
 40
0
 41
0
  0
SEQEND
 8
0
  0
ENDSEC
  0
EOF
