<?xml version="1.0" encoding="UTF-8" standalone="no"?>
<svg
   xmlns:dc="http://purl.org/dc/elements/1.1/"
   xmlns:cc="http://creativecommons.org/ns#"
   xmlns:rdf="http://www.w3.org/1999/02/22-rdf-syntax-ns#"
   xmlns:svg="http://www.w3.org/2000/svg"
   xmlns="http://www.w3.org/2000/svg"
   xmlns:sodipodi="http://sodipodi.sourceforge.net/DTD/sodipodi-0.dtd"
   xmlns:inkscape="http://www.inkscape.org/namespaces/inkscape"
   inkscape:version="1.0 (4035a4fb49, 2020-05-01)"
   sodipodi:docname="mute-Kiranshastry2.svg"
   viewBox="0, 0, 400,400"
   height="400"
   width="400"
   version="1.1"
   id="svg">
  <metadata
     id="metadata9">
    <rdf:RDF>
      <cc:Work
         rdf:about="">
        <dc:format>image/svg+xml</dc:format>
        <dc:type
           rdf:resource="http://purl.org/dc/dcmitype/StillImage" />
      </cc:Work>
    </rdf:RDF>
  </metadata>
  <defs
     id="defs7" />
  <sodipodi:namedview
     inkscape:current-layer="svg"
     inkscape:window-maximized="1"
     inkscape:window-y="892"
     inkscape:window-x="1912"
     inkscape:cy="-474.91358"
     inkscape:cx="1105.1153"
     inkscape:zoom="0.265625"
     showgrid="false"
     id="namedview5"
     inkscape:window-height="1017"
     inkscape:window-width="1920"
     inkscape:pageshadow="2"
     inkscape:pageopacity="0"
     guidetolerance="10"
     gridtolerance="10"
     objecttolerance="10"
     borderopacity="1"
     bordercolor="#666666"
     pagecolor="#ffffff" />
  <g
     transform="matrix(-0.11481651,0,0,-0.11590355,45.721524,47.637506)"
     id="svgg">
    <path
       fill-rule="evenodd"
       fill="#000000"
       stroke="none"
       d="M 282.813,2.555 C 281.738,3.043 242.8,25.687 196.282,52.876 l -84.577,49.434 -49.074,0.212 -49.075,0.212 -2.747,1.883 c -1.511,1.036 -3.594,3.119 -4.629,4.63 l -1.883,2.748 V 200 288.005 l 1.883,2.748 c 1.035,1.511 3.119,3.594 4.63,4.63 l 2.747,1.883 h 24.399 24.399 l 3.002,-2.389 c 9.136,-7.27 8.353,-21.066 -1.491,-26.298 -2.974,-1.581 -4.639,-1.792 -16.014,-2.036 l -12.696,-0.271 v -66.339 -66.339 h 32.813 32.812 v 47.29 c 0,40.917 0.163,47.681 1.209,50.185 5.305,12.697 23.527,12.697 28.832,0 1.049,-2.509 1.212,-9.622 1.229,-53.505 l 0.02,-50.611 69.521,-40.625 c 38.237,-22.344 69.868,-40.742 70.293,-40.885 0.472,-0.16 0.771,2.63 0.771,7.188 0,11.129 1.058,15.062 5.101,18.969 7.646,7.388 19.784,5.492 24.789,-3.872 2.159,-4.039 2.748,-50.457 0.713,-56.205 C 300.537,3.831 290.091,-0.75 282.813,2.555 m 96.313,20.287 C 375.952,23.861 394.146,7.189 183.511,202.103 59.427,316.926 2.257,370.321 1.338,372.247 -4.931,385.392 8.492,399.322 21.875,393.559 24.831,392.286 394.39,50.77 397.574,46.369 406.216,34.423 393.512,18.222 379.126,22.842 m -94.36,146.6 c -5.789,1.48 -9.983,5.873 -11.251,11.785 -0.595,2.775 -0.859,30.287 -0.859,89.515 0,47.029 -0.126,85.508 -0.281,85.508 -0.155,0 -27.665,-14.472 -61.133,-32.159 -63.983,-33.814 -63.749,-33.707 -70.98,-32.351 -10.318,1.936 -14.775,16.982 -7.529,25.415 3.561,4.145 149.387,80.682 154.568,81.125 6.759,0.578 12.333,-2.49 15.24,-8.39 l 1.756,-3.562 0.21,-99.94 c 0.138,-65.9 -0.064,-101.418 -0.592,-104.278 -1.671,-9.04 -10.499,-14.879 -19.149,-12.668"
       id="path0" />
  </g>
</svg>
