  0
SECTION
  2
HEADER
  9
$ACADVER
  1
AC1009
  9
$FILLMODE
 70
 0
  9
$SPLFRAME
 70
 1
  9
$EXTMIN
 10
0
 20
0
 30
0.0
  9
$EXTMAX
 10
41.6667
 20
41.6667
 30
0.0
  0
ENDSEC
  0
SECTION
  2
TABLES
  0
TABLE
  2
LAYER
 70
1
  0
LAYER
  2
0
 70
     0
 62
     7
  6
CONTINUOUS
  0
ENDTAB
  0
ENDSEC
  0
SECTION
  2
ENTITIES
  0
POLYLINE
  8
0
 62
     0
 66
     1
 10
0
 20
0
 30
0.0
 70
     1
 40
0
 41
0
  0
VERTEX
  8
0
 10
0.60715
 20
3.35303
 30
0.0
 40
0
 41
0
  0
VERTEX
  8
0
 10
0.60715
 20
3.51687
 30
0.0
 40
0
 41
0
  0
VERTEX
  8
0
 10
0.567219
 20
3.51687
 30
0.0
 40
0
 41
0
  0
VERTEX
  8
0
 10
0.567219
 20
3.23828
 30
0.0
 40
0
 41
0
  0
VERTEX
  8
0
 10
0.16965
 20
3.23828
 30
0.0
 40
0
 41
0
  0
VERTEX
  8
0
 10
0.16965
 20
3.51687
 30
0.0
 40
0
 41
0
  0
VERTEX
  8
0
 10
0.127984
 20
3.51687
 30
0.0
 40
0
 41
0
  0
VERTEX
  8
0
 10
0.127984
 20
3.18913
 30
0.0
 40
0
 41
0
  0
VERTEX
  8
0
 10
0.60715
 20
3.18913
 30
0.0
 40
0
 41
0
  0
VERTEX
  8
0
 10
0.60715
 20
3.35303
 30
0.0
 40
0
 41
0
  0
SEQEND
 8
0
  0
POLYLINE
  8
0
 62
     0
 66
     1
 10
0
 20
0
 30
0.0
 70
     1
 40
0
 41
0
  0
VERTEX
  8
0
 10
0.484754
 20
3.33251
 30
0.0
 40
0
 41
0
  0
VERTEX
  8
0
 10
0.498589
 20
3.34896
 30
0.0
 40
0
 41
0
  0
VERTEX
  8
0
 10
0.447428
 20
3.40935
 30
0.0
 40
0
 41
0
  0
VERTEX
  8
0
 10
0.396213
 20
3.46978
 30
0.0
 40
0
 41
0
  0
VERTEX
  8
0
 10
0.417046
 20
3.49425
 30
0.0
 40
0
 41
0
  0
VERTEX
  8
0
 10
0.437879
 20
3.51878
 30
0.0
 40
0
 41
0
  0
VERTEX
  8
0
 10
0.447428
 20
3.51481
 30
0.0
 40
0
 41
0
  0
VERTEX
  8
0
 10
0.452365
 20
3.51281
 30
0.0
 40
0
 41
0
  0
VERTEX
  8
0
 10
0.468858
 20
3.51047
 30
0.0
 40
0
 41
0
  0
VERTEX
  8
0
 10
0.488932
 20
3.51438
 30
0.0
 40
0
 41
0
  0
VERTEX
  8
0
 10
0.506511
 20
3.52513
 30
0.0
 40
0
 41
0
  0
VERTEX
  8
0
 10
0.520833
 20
3.54135
 30
0.0
 40
0
 41
0
  0
VERTEX
  8
0
 10
0.530761
 20
3.56158
 30
0.0
 40
0
 41
0
  0
VERTEX
  8
0
 10
0.535482
 20
3.58436
 30
0.0
 40
0
 41
0
  0
VERTEX
  8
0
 10
0.534017
 20
3.60829
 30
0.0
 40
0
 41
0
  0
VERTEX
  8
0
 10
0.528321
 20
3.62651
 30
0.0
 40
0
 41
0
  0
VERTEX
  8
0
 10
0.52539
 20
3.63194
 30
0.0
 40
0
 41
0
  0
VERTEX
  8
0
 10
0.521918
 20
3.63829
 30
0.0
 40
0
 41
0
  0
VERTEX
  8
0
 10
0.507215
 20
3.65479
 30
0.0
 40
0
 41
0
  0
VERTEX
  8
0
 10
0.485568
 20
3.66629
 30
0.0
 40
0
 41
0
  0
VERTEX
  8
0
 10
0.462674
 20
3.66769
 30
0.0
 40
0
 41
0
  0
VERTEX
  8
0
 10
0.440701
 20
3.66021
 30
0.0
 40
0
 41
0
  0
VERTEX
  8
0
 10
0.421767
 20
3.64497
 30
0.0
 40
0
 41
0
  0
VERTEX
  8
0
 10
0.40804
 20
3.62321
 30
0.0
 40
0
 41
0
  0
VERTEX
  8
0
 10
0.401693
 20
3.59619
 30
0.0
 40
0
 41
0
  0
VERTEX
  8
0
 10
0.40294
 20
3.57254
 30
0.0
 40
0
 41
0
  0
VERTEX
  8
0
 10
0.404949
 20
3.56506
 30
0.0
 40
0
 41
0
  0
VERTEX
  8
0
 10
0.40804
 20
3.55344
 30
0.0
 40
0
 41
0
  0
VERTEX
  8
0
 10
0.387424
 20
3.52903
 30
0.0
 40
0
 41
0
  0
VERTEX
  8
0
 10
0.366754
 20
3.50461
 30
0.0
 40
0
 41
0
  0
VERTEX
  8
0
 10
0.347493
 20
3.52724
 30
0.0
 40
0
 41
0
  0
VERTEX
  8
0
 10
0.328233
 20
3.54992
 30
0.0
 40
0
 41
0
  0
VERTEX
  8
0
 10
0.331597
 20
3.56158
 30
0.0
 40
0
 41
0
  0
VERTEX
  8
0
 10
0.333496
 20
3.56836
 30
0.0
 40
0
 41
0
  0
VERTEX
  8
0
 10
0.335286
 20
3.58985
 30
0.0
 40
0
 41
0
  0
VERTEX
  8
0
 10
0.330621
 20
3.61529
 30
0.0
 40
0
 41
0
  0
VERTEX
  8
0
 10
0.319336
 20
3.63672
 30
0.0
 40
0
 41
0
  0
VERTEX
  8
0
 10
0.303006
 20
3.653
 30
0.0
 40
0
 41
0
  0
VERTEX
  8
0
 10
0.283311
 20
3.66292
 30
0.0
 40
0
 41
0
  0
VERTEX
  8
0
 10
0.261936
 20
3.66521
 30
0.0
 40
0
 41
0
  0
VERTEX
  8
0
 10
0.240451
 20
3.65875
 30
0.0
 40
0
 41
0
  0
VERTEX
  8
0
 10
0.224664
 20
3.64714
 30
0.0
 40
0
 41
0
  0
VERTEX
  8
0
 10
0.220594
 20
3.64225
 30
0.0
 40
0
 41
0
  0
VERTEX
  8
0
 10
0.2162
 20
3.6371
 30
0.0
 40
0
 41
0
  0
VERTEX
  8
0
 10
0.206489
 20
3.61849
 30
0.0
 40
0
 41
0
  0
VERTEX
  8
0
 10
0.201172
 20
3.59299
 30
0.0
 40
0
 41
0
  0
VERTEX
  8
0
 10
0.20356
 20
3.56771
 30
0.0
 40
0
 41
0
  0
VERTEX
  8
0
 10
0.212511
 20
3.54454
 30
0.0
 40
0
 41
0
  0
VERTEX
  8
0
 10
0.226997
 20
3.52556
 30
0.0
 40
0
 41
0
  0
VERTEX
  8
0
 10
0.245931
 20
3.51269
 30
0.0
 40
0
 41
0
  0
VERTEX
  8
0
 10
0.268175
 20
3.50782
 30
0.0
 40
0
 41
0
  0
VERTEX
  8
0
 10
0.287056
 20
3.51053
 30
0.0
 40
0
 41
0
  0
VERTEX
  8
0
 10
0.292697
 20
3.51292
 30
0.0
 40
0
 41
0
  0
VERTEX
  8
0
 10
0.298503
 20
3.5154
 30
0.0
 40
0
 41
0
  0
VERTEX
  8
0
 10
0.317817
 20
3.49257
 30
0.0
 40
0
 41
0
  0
VERTEX
  8
0
 10
0.337185
 20
3.46978
 30
0.0
 40
0
 41
0
  0
VERTEX
  8
0
 10
0.287706
 20
3.4114
 30
0.0
 40
0
 41
0
  0
VERTEX
  8
0
 10
0.238282
 20
3.35303
 30
0.0
 40
0
 41
0
  0
VERTEX
  8
0
 10
0.252983
 20
3.33561
 30
0.0
 40
0
 41
0
  0
VERTEX
  8
0
 10
0.267686
 20
3.31814
 30
0.0
 40
0
 41
0
  0
VERTEX
  8
0
 10
0.317219
 20
3.37651
 30
0.0
 40
0
 41
0
  0
VERTEX
  8
0
 10
0.366754
 20
3.43494
 30
0.0
 40
0
 41
0
  0
VERTEX
  8
0
 10
0.417046
 20
3.37554
 30
0.0
 40
0
 41
0
  0
VERTEX
  8
0
 10
0.421929
 20
3.36979
 30
0.0
 40
0
 41
0
  0
VERTEX
  8
0
 10
0.436686
 20
3.35249
 30
0.0
 40
0
 41
0
  0
VERTEX
  8
0
 10
0.453125
 20
3.33361
 30
0.0
 40
0
 41
0
  0
VERTEX
  8
0
 10
0.464464
 20
3.32086
 30
0.0
 40
0
 41
0
  0
VERTEX
  8
0
 10
0.46799
 20
3.31614
 30
0.0
 40
0
 41
0
  0
VERTEX
  8
0
 10
0.469185
 20
3.31614
 30
0.0
 40
0
 41
0
  0
VERTEX
  8
0
 10
0.470486
 20
3.31614
 30
0.0
 40
0
 41
0
  0
VERTEX
  8
0
 10
0.474447
 20
3.32096
 30
0.0
 40
0
 41
0
  0
VERTEX
  8
0
 10
0.482856
 20
3.33029
 30
0.0
 40
0
 41
0
  0
VERTEX
  8
0
 10
0.484754
 20
3.33251
 30
0.0
 40
0
 41
0
  0
SEQEND
 8
0
  0
POLYLINE
  8
0
 62
     0
 66
     1
 10
0
 20
0
 30
0.0
 70
     1
 40
0
 41
0
  0
VERTEX
  8
0
 10
0.256456
 20
3.55963
 30
0.0
 40
0
 41
0
  0
VERTEX
  8
0
 10
0.252875
 20
3.56185
 30
0.0
 40
0
 41
0
  0
VERTEX
  8
0
 10
0.245171
 20
3.57314
 30
0.0
 40
0
 41
0
  0
VERTEX
  8
0
 10
0.242731
 20
3.59039
 30
0.0
 40
0
 41
0
  0
VERTEX
  8
0
 10
0.248589
 20
3.60644
 30
0.0
 40
0
 41
0
  0
VERTEX
  8
0
 10
0.25841
 20
3.61524
 30
0.0
 40
0
 41
0
  0
VERTEX
  8
0
 10
0.262207
 20
3.61632
 30
0.0
 40
0
 41
0
  0
VERTEX
  8
0
 10
0.265246
 20
3.61724
 30
0.0
 40
0
 41
0
  0
VERTEX
  8
0
 10
0.280925
 20
3.61236
 30
0.0
 40
0
 41
0
  0
VERTEX
  8
0
 10
0.292101
 20
3.59825
 30
0.0
 40
0
 41
0
  0
VERTEX
  8
0
 10
0.292969
 20
3.59457
 30
0.0
 40
0
 41
0
  0
VERTEX
  8
0
 10
0.293892
 20
3.59039
 30
0.0
 40
0
 41
0
  0
VERTEX
  8
0
 10
0.292372
 20
3.57671
 30
0.0
 40
0
 41
0
  0
VERTEX
  8
0
 10
0.284125
 20
3.56304
 30
0.0
 40
0
 41
0
  0
VERTEX
  8
0
 10
0.271158
 20
3.55643
 30
0.0
 40
0
 41
0
  0
VERTEX
  8
0
 10
0.25944
 20
3.55778
 30
0.0
 40
0
 41
0
  0
VERTEX
  8
0
 10
0.256456
 20
3.55963
 30
0.0
 40
0
 41
0
  0
SEQEND
 8
0
  0
POLYLINE
  8
0
 62
     0
 66
     1
 10
0
 20
0
 30
0.0
 70
     1
 40
0
 41
0
  0
VERTEX
  8
0
 10
0.454699
 20
3.56407
 30
0.0
 40
0
 41
0
  0
VERTEX
  8
0
 10
0.451172
 20
3.56662
 30
0.0
 40
0
 41
0
  0
VERTEX
  8
0
 10
0.444228
 20
3.57921
 30
0.0
 40
0
 41
0
  0
VERTEX
  8
0
 10
0.444011
 20
3.5975
 30
0.0
 40
0
 41
0
  0
VERTEX
  8
0
 10
0.452474
 20
3.61285
 30
0.0
 40
0
 41
0
  0
VERTEX
  8
0
 10
0.464301
 20
3.61931
 30
0.0
 40
0
 41
0
  0
VERTEX
  8
0
 10
0.468261
 20
3.61931
 30
0.0
 40
0
 41
0
  0
VERTEX
  8
0
 10
0.47206
 20
3.61931
 30
0.0
 40
0
 41
0
  0
VERTEX
  8
0
 10
0.483561
 20
3.61382
 30
0.0
 40
0
 41
0
  0
VERTEX
  8
0
 10
0.492512
 20
3.60026
 30
0.0
 40
0
 41
0
  0
VERTEX
  8
0
 10
0.493599
 20
3.58311
 30
0.0
 40
0
 41
0
  0
VERTEX
  8
0
 10
0.488336
 20
3.57004
 30
0.0
 40
0
 41
0
  0
VERTEX
  8
0
 10
0.485351
 20
3.56685
 30
0.0
 40
0
 41
0
  0
VERTEX
  8
0
 10
0.483399
 20
3.56483
 30
0.0
 40
0
 41
0
  0
VERTEX
  8
0
 10
0.470594
 20
3.5599
 30
0.0
 40
0
 41
0
  0
VERTEX
  8
0
 10
0.456976
 20
3.56244
 30
0.0
 40
0
 41
0
  0
VERTEX
  8
0
 10
0.454699
 20
3.56407
 30
0.0
 40
0
 41
0
  0
SEQEND
 8
0
  0
ENDSEC
  0
EOF
