<?xml version="1.0" encoding="UTF-8" standalone="no"?>
<svg
   xmlns:dc="http://purl.org/dc/elements/1.1/"
   xmlns:cc="http://creativecommons.org/ns#"
   xmlns:rdf="http://www.w3.org/1999/02/22-rdf-syntax-ns#"
   xmlns:svg="http://www.w3.org/2000/svg"
   xmlns="http://www.w3.org/2000/svg"
   xmlns:sodipodi="http://sodipodi.sourceforge.net/DTD/sodipodi-0.dtd"
   xmlns:inkscape="http://www.inkscape.org/namespaces/inkscape"
   inkscape:version="1.0 (4035a4fb49, 2020-05-01)"
   sodipodi:docname="Print Screen.svg"
   viewBox="0, 0, 400,401.3651877133106"
   height="401.3651877133106"
   width="400"
   version="1.1"
   id="svg">
  <metadata
     id="metadata2002">
    <rdf:RDF>
      <cc:Work
         rdf:about="">
        <dc:format>image/svg+xml</dc:format>
        <dc:type
           rdf:resource="http://purl.org/dc/dcmitype/StillImage" />
      </cc:Work>
    </rdf:RDF>
  </metadata>
  <defs
     id="defs2000" />
  <sodipodi:namedview
     inkscape:current-layer="svg"
     inkscape:window-maximized="1"
     inkscape:window-y="892"
     inkscape:window-x="-8"
     inkscape:cy="200.68259"
     inkscape:cx="200"
     inkscape:zoom="2.0604678"
     showgrid="false"
     id="namedview1998"
     inkscape:window-height="1017"
     inkscape:window-width="1920"
     inkscape:pageshadow="2"
     inkscape:pageopacity="0"
     guidetolerance="10"
     gridtolerance="10"
     objecttolerance="10"
     borderopacity="1"
     bordercolor="#666666"
     pagecolor="#ffffff" />
  <g
     transform="matrix(-0.1220836,0,0,-0.14405866,59.787043,103.78869)"
     id="svgg">
    <path
       fill-rule="evenodd"
       fill="#000000"
       stroke="none"
       d="m 12.287,159.727 v 109.215 h 15.699 15.7 V 176.109 83.276 H 200 356.314 v 92.833 92.833 h 16.382 16.382 V 159.727 50.512 H 200.683 12.287 v 109.215 m 96.234,-13.64 -10.869,10.933 40.245,40.262 40.244,40.262 -16.374,16.319 -16.375,16.318 -7.508,-2.623 c -45.88,-16.026 -87.582,37.085 -61.29,78.058 32.953,51.354 113,13.661 94.68,-44.583 l -2.428,-7.721 16.238,-16.28 16.238,-16.281 15.141,15.098 15.141,15.097 -2.633,7.769 c -17.6,51.934 48.437,92.603 87.285,53.755 39.527,-39.527 -3.751,-105.335 -56.677,-86.182 l -4.586,1.659 -15.201,-15.201 -15.202,-15.202 38.88,-38.898 38.88,-38.898 -11.565,-11.625 -11.565,-11.626 -38.936,38.919 -38.936,38.919 -39.573,-39.591 c -21.765,-21.775 -40.206,-39.59 -40.979,-39.59 -0.773,0 -6.297,4.92 -12.275,10.933 m 179.555,151.321 c 16.585,8.814 13.645,33.238 -4.55,37.805 -9.643,2.42 -21.536,-4.723 -24.174,-14.519 -4.54,-16.861 13.418,-31.419 28.724,-23.286 m -155.915,2.967 c 16.816,10.252 9.125,36.816 -10.659,36.816 -18.92,0 -27.477,-22.264 -13.441,-34.969 6.036,-5.464 16.813,-6.29 24.1,-1.847"
       id="path0" />
  </g>
</svg>
